<?xml version="1.0" standalone="no"?>
<!DOCTYPE svg PUBLIC "-//W3C//DTD SVG 20010904//EN"
 "http://www.w3.org/TR/2001/REC-SVG-20010904/DTD/svg10.dtd">
<svg version="1.0" xmlns="http://www.w3.org/2000/svg"
 width="460.000000pt" height="460.000000pt" viewBox="0 0 460.000000 460.000000"
 preserveAspectRatio="xMidYMid meet">
<metadata>
Created by potrace 1.11, written by Peter Selinger 2001-2013
</metadata>
<g transform="translate(0.000000,460.000000) scale(0.100000,-0.100000)"
fill="#000000" stroke="none">
<path d="M1743 3764 c-672 -73 -1261 -334 -1619 -717 -88 -93 -117 -158 -122
-274 -4 -86 -2 -96 25 -155 16 -35 55 -91 86 -125 l57 -61 0 -68 c1 -157 63
-284 167 -342 15 -9 8 -19 -56 -87 -109 -115 -152 -230 -132 -355 l9 -55 -46
-50 c-25 -27 -59 -79 -76 -115 -27 -57 -31 -76 -31 -150 0 -75 4 -93 32 -152
37 -78 103 -148 175 -184 108 -55 96 -54 973 -51 630 2 816 5 839 15 24 11 41
10 95 -2 86 -19 274 -19 348 0 51 13 64 13 120 -1 52 -13 107 -15 325 -11 145
3 272 6 283 6 11 -1 211 -3 444 -6 453 -6 488 -3 576 43 110 57 168 123 205
234 41 121 11 259 -78 360 l-41 45 41 40 c75 73 156 200 197 308 53 142 68
346 37 492 -45 213 -173 431 -366 625 -444 446 -1098 733 -1820 799 -155 14
-497 11 -647 -6z"/>
</g>
</svg>
